<?xml version="1.0" standalone="no"?>
<!DOCTYPE svg PUBLIC "-//W3C//DTD SVG 20010904//EN"
 "http://www.w3.org/TR/2001/REC-SVG-20010904/DTD/svg10.dtd">
<svg version="1.0" xmlns="http://www.w3.org/2000/svg"
 width="700.000000pt" height="700.000000pt" viewBox="0 0 700.000000 700.000000"
 preserveAspectRatio="xMidYMid meet">
<metadata>
Created by potrace 1.11, written by Peter Selinger 2001-2013
</metadata>
<g transform="translate(0.000000,700.000000) scale(0.100000,-0.100000)"
fill="#000000" stroke="none">
<path d="M1509 6996 c-2 -2 -28 -7 -58 -10 -30 -4 -64 -9 -75 -11 -12 -2 -34
-6 -51 -9 -95 -14 -251 -65 -375 -123 -74 -34 -220 -116 -250 -140 -8 -6 -49
-38 -90 -71 -174 -136 -335 -334 -436 -533 -41 -82 -102 -237 -109 -279 -3
-16 -9 -40 -14 -54 -6 -13 -15 -50 -20 -83 -6 -32 -14 -74 -18 -93 -4 -19 -8
-951 -9 -2070 -2 -1677 0 -2048 11 -2110 8 -41 16 -91 20 -110 27 -154 122
-389 217 -535 271 -419 696 -686 1191 -749 94 -12 430 -15 2057 -14 1070 0
1974 3 2010 8 128 16 166 22 225 37 33 8 67 17 75 18 61 14 195 69 300 122
401 204 700 563 824 990 67 232 65 136 65 2323 0 2128 1 2069 -50 2270 -157
616 -689 1103 -1314 1204 -22 4 -56 10 -75 13 -36 7 -4043 16 -4051 9z"/>
</g>
</svg>
